STARTFONT 2.1
COMMENT
COMMENT Converted from OpenType font "04B_30__.ttf" by "otf2bdf 3.0".
COMMENT
FONT -FreeType-04b-Medium-R-Normal--17-120-100-100-P-116-ISO10646-1
SIZE 12 100 100
FONTBOUNDINGBOX 15 16 0 -2
STARTPROPERTIES 19
FOUNDRY "FreeType"
FAMILY_NAME "04b"
WEIGHT_NAME "Medium"
SLANT "R"
SETWIDTH_NAME "Normal"
ADD_STYLE_NAME ""
PIXEL_SIZE 17
POINT_SIZE 120
RESOLUTION_X 100
RESOLUTION_Y 100
SPACING "P"
AVERAGE_WIDTH 116
CHARSET_REGISTRY "ISO10646"
CHARSET_ENCODING "1"
FONT_ASCENT 15
FONT_DESCENT 2
COPYRIGHT "2000 / yuji oshimoÿo  / 04@jp.org / www.04.jp.org"
_OTF_FONTFILE "04B_30__.ttf"
_OTF_PSNAME "04b30"
ENDPROPERTIES
CHARS 97
STARTCHAR 0020
ENCODING 32
SWIDTH 840 0
DWIDTH 14 0
BBX 0 0 0 0
BITMAP
ENDCHAR
STARTCHAR 0021
ENCODING 33
SWIDTH 540 0
DWIDTH 9 0
BBX 7 14 0 0
BITMAP
7C
9E
BE
BE
FE
7C
7C
38
00
38
7C
7C
7C
38
ENDCHAR
STARTCHAR 0022
ENCODING 34
SWIDTH 840 0
DWIDTH 14 0
BBX 12 7 0 6
BITMAP
70E0
9930
B970
B970
F9F0
F9F0
70E0
ENDCHAR
STARTCHAR 0023
ENCODING 35
SWIDTH 960 0
DWIDTH 16 0
BBX 14 14 0 0
BITMAP
1C60
26F0
2EF0
2EF0
FFFC
7FF8
3EF0
3EF0
3EF0
7FF8
7EF8
3EF0
3EF0
1C60
ENDCHAR
STARTCHAR 0024
ENCODING 36
SWIDTH 840 0
DWIDTH 14 0
BBX 0 0 0 0
BITMAP
ENDCHAR
STARTCHAR 0025
ENCODING 37
SWIDTH 960 0
DWIDTH 16 0
BBX 14 14 0 0
BITMAP
7038
987C
B8FC
B2F8
73F8
07F0
1FC0
1FC0
3F80
7F38
7F38
FC7C
F87C
7038
ENDCHAR
STARTCHAR 0026
ENCODING 38
SWIDTH 840 0
DWIDTH 14 0
BBX 0 0 0 0
BITMAP
ENDCHAR
STARTCHAR 0027
ENCODING 39
SWIDTH 420 0
DWIDTH 7 0
BBX 5 7 0 6
BITMAP
70
98
B8
B8
F8
F8
70
ENDCHAR
STARTCHAR 0028
ENCODING 40
SWIDTH 600 0
DWIDTH 10 0
BBX 8 14 0 0
BITMAP
0E
07
2F
7E
7C
7C
F8
F8
F8
7C
7E
7F
1F
0E
ENDCHAR
STARTCHAR 0029
ENCODING 41
SWIDTH 600 0
DWIDTH 10 0
BBX 8 14 0 0
BITMAP
70
98
BC
7E
3E
3E
1F
1F
1F
3E
BC
FC
F8
70
ENDCHAR
STARTCHAR 002A
ENCODING 42
SWIDTH 540 0
DWIDTH 9 0
BBX 7 7 0 7
BITMAP
6C
9E
BE
BE
7C
FE
6C
ENDCHAR
STARTCHAR 002B
ENCODING 43
SWIDTH 960 0
DWIDTH 16 0
BBX 14 14 0 0
BITMAP
0780
09C0
0BC0
0BC0
0FC0
7FF8
FFFC
FFFC
7FF8
0FC0
0FC0
0FC0
0FC0
0780
ENDCHAR
STARTCHAR 002C
ENCODING 44
SWIDTH 420 0
DWIDTH 7 0
BBX 5 7 0 -1
BITMAP
70
98
B8
B8
F8
F8
70
ENDCHAR
STARTCHAR 002D
ENCODING 45
SWIDTH 840 0
DWIDTH 14 0
BBX 12 5 0 4
BITMAP
7FE0
9FF0
BFF0
BFF0
7FE0
ENDCHAR
STARTCHAR 002E
ENCODING 46
SWIDTH 420 0
DWIDTH 7 0
BBX 5 5 0 1
BITMAP
70
98
B8
B8
70
ENDCHAR
STARTCHAR 002F
ENCODING 47
SWIDTH 960 0
DWIDTH 16 0
BBX 14 14 0 0
BITMAP
0038
007C
00FC
01FC
03F8
07F0
0FE0
1FC0
3F80
7F00
FE00
FC00
F800
7000
ENDCHAR
STARTCHAR 0030
ENCODING 48
SWIDTH 960 0
DWIDTH 16 0
BBX 14 14 0 0
BITMAP
3FF0
1FF8
BFFC
FE3C
FE3C
FE3C
FE3C
FE3C
FE3C
FE3C
FFFC
FFFC
7FF8
3FF0
ENDCHAR
STARTCHAR 0031
ENCODING 49
SWIDTH 660 0
DWIDTH 11 0
BBX 9 14 0 0
BITMAP
7F00
9F80
BF80
BF80
3F80
3F80
3F80
3F80
3F80
3F80
3F80
3F80
3F80
1F00
ENDCHAR
STARTCHAR 0032
ENCODING 50
SWIDTH 960 0
DWIDTH 16 0
BBX 14 14 0 0
BITMAP
7FF0
9FF8
BFFC
BFFC
007C
3FFC
BFF4
FFF0
FE00
FFF8
FFFC
FFFC
FFFC
7FF8
ENDCHAR
STARTCHAR 0033
ENCODING 51
SWIDTH 960 0
DWIDTH 16 0
BBX 14 14 0 0
BITMAP
3FF0
1FF8
BFFC
7FFC
003C
3FFC
7FFC
3FFC
003C
7FFC
FFFC
FFFC
7FF8
3FF0
ENDCHAR
STARTCHAR 0034
ENCODING 52
SWIDTH 960 0
DWIDTH 16 0
BBX 14 14 0 0
BITMAP
78E0
9DF0
BDF0
BDF0
FDF0
FDF0
FDF0
FFF8
FFFC
7FFC
3FF8
01F0
01F0
00E0
ENDCHAR
STARTCHAR 0035
ENCODING 53
SWIDTH 960 0
DWIDTH 16 0
BBX 14 14 0 0
BITMAP
7FF8
9FFC
BFFC
BFFC
FE00
FFF0
FFF0
7FFC
007C
7FFC
FFFC
FFFC
FFF8
7FF0
ENDCHAR
STARTCHAR 0036
ENCODING 54
SWIDTH 960 0
DWIDTH 16 0
BBX 14 14 0 0
BITMAP
3FF0
1FF8
BFF0
FE00
FE00
FE00
FFF0
FE3C
FE3C
FE3C
FFFC
FFFC
7FF8
3FF0
ENDCHAR
STARTCHAR 0037
ENCODING 55
SWIDTH 960 0
DWIDTH 16 0
BBX 14 14 0 0
BITMAP
7FF8
9FFC
BFFC
BFFC
01FC
03F8
03F8
0FC0
0FC0
0FC0
0FC0
0FC0
0FC0
0780
ENDCHAR
STARTCHAR 0038
ENCODING 56
SWIDTH 960 0
DWIDTH 16 0
BBX 14 14 0 0
BITMAP
3FF0
1FF8
BFFC
FE3C
FE3C
FE3C
7FF8
FE3C
FE3C
FE3C
FFFC
FFFC
7FF8
3FF0
ENDCHAR
STARTCHAR 0039
ENCODING 57
SWIDTH 960 0
DWIDTH 16 0
BBX 14 14 0 0
BITMAP
3FF0
1FF8
BFFC
FE3C
FE3C
FE3C
7FFC
3FF8
01F8
03F0
03F0
1F80
1F80
0F00
ENDCHAR
STARTCHAR 003A
ENCODING 58
SWIDTH 420 0
DWIDTH 7 0
BBX 5 12 0 1
BITMAP
70
98
B8
B8
70
00
00
88
F8
F8
F8
70
ENDCHAR
STARTCHAR 003B
ENCODING 59
SWIDTH 420 0
DWIDTH 7 0
BBX 5 14 0 -1
BITMAP
70
98
B8
B8
70
00
00
88
F8
F8
F8
F8
F8
70
ENDCHAR
STARTCHAR 003C
ENCODING 60
SWIDTH 660 0
DWIDTH 11 0
BBX 9 14 0 0
BITMAP
0700
0380
1780
5680
7E00
7A00
F800
F800
FC00
7E00
5E80
1F80
0F80
0700
ENDCHAR
STARTCHAR 003D
ENCODING 61
SWIDTH 840 0
DWIDTH 14 0
BBX 12 12 0 1
BITMAP
7FE0
9FF0
BFF0
BFE0
4000
0000
0000
7FE0
FFF0
FFF0
FFF0
7FE0
ENDCHAR
STARTCHAR 003E
ENCODING 62
SWIDTH 660 0
DWIDTH 11 0
BBX 9 14 0 0
BITMAP
7000
9800
BD00
BD00
3F80
0F80
0F80
0F80
1F80
3F00
3E00
FC00
F800
7000
ENDCHAR
STARTCHAR 003F
ENCODING 63
SWIDTH 960 0
DWIDTH 16 0
BBX 14 14 0 0
BITMAP
7FF0
9FF8
BFFC
BFFC
007C
07FC
0FF4
0000
0700
0700
0F80
0F80
0F80
0700
ENDCHAR
STARTCHAR 0040
ENCODING 64
SWIDTH 840 0
DWIDTH 14 0
BBX 0 0 0 0
BITMAP
ENDCHAR
STARTCHAR 0041
ENCODING 65
SWIDTH 960 0
DWIDTH 16 0
BBX 14 14 0 0
BITMAP
3FE0
1FF0
BFF8
FE3C
FE3C
FE3C
FFFC
FE3C
FE3C
FE3C
FE3C
FE3C
FE3C
7C18
ENDCHAR
STARTCHAR 0042
ENCODING 66
SWIDTH 960 0
DWIDTH 16 0
BBX 14 14 0 0
BITMAP
BFF8
BFFC
BFFC
FE3C
FE3C
FE3C
FFF8
FE3C
FE3C
FE3C
FFFC
FFFC
FFF8
7FF0
ENDCHAR
STARTCHAR 0043
ENCODING 67
SWIDTH 960 0
DWIDTH 16 0
BBX 14 14 0 0
BITMAP
3FF8
1FFC
BFF8
FE00
FE00
FE00
FE00
FE00
FE00
FE00
FFF8
FFFC
7FFC
3FF8
ENDCHAR
STARTCHAR 0044
ENCODING 68
SWIDTH 960 0
DWIDTH 16 0
BBX 14 14 0 0
BITMAP
7FE0
9FF0
BFF8
BFF8
FE3C
FE3C
FE3C
FE3C
FE3C
FE7C
FFFC
FFFC
FFF8
7FF0
ENDCHAR
STARTCHAR 0045
ENCODING 69
SWIDTH 960 0
DWIDTH 16 0
BBX 14 14 0 0
BITMAP
BFFC
BFFC
BFF8
FE00
FE04
FE04
FFFC
FE04
FE00
FE00
FFF8
FFFC
FFFC
7FF8
ENDCHAR
STARTCHAR 0046
ENCODING 70
SWIDTH 960 0
DWIDTH 16 0
BBX 14 14 0 0
BITMAP
BFFC
BFFC
BFF8
FE00
FE04
FE04
FFFC
FFF8
FE00
FE00
FE00
FE00
FE00
7C00
ENDCHAR
STARTCHAR 0047
ENCODING 71
SWIDTH 960 0
DWIDTH 16 0
BBX 14 14 0 0
BITMAP
3FF8
1FFC
BFF8
FE00
FE00
FE00
FEFC
FE3C
FE3C
FE3C
FFFC
FFFC
7FF8
3FF0
ENDCHAR
STARTCHAR 0048
ENCODING 72
SWIDTH 960 0
DWIDTH 16 0
BBX 14 14 0 0
BITMAP
7C38
9E7C
BE7C
BE7C
FE7C
FFFC
FFFC
FFFC
FE7C
FE7C
FE7C
FE7C
FE7C
7C38
ENDCHAR
STARTCHAR 0049
ENCODING 73
SWIDTH 540 0
DWIDTH 9 0
BBX 7 14 0 0
BITMAP
7C
9E
BE
BE
FE
FE
FE
FE
FE
FE
FE
FE
FE
7C
ENDCHAR
STARTCHAR 004A
ENCODING 74
SWIDTH 960 0
DWIDTH 16 0
BBX 14 14 0 0
BITMAP
00F8
013C
017C
017C
01FC
01FC
71FC
F9FC
F9FC
F9FC
FFFC
FFFC
7FF8
3FF0
ENDCHAR
STARTCHAR 004B
ENCODING 75
SWIDTH 960 0
DWIDTH 16 0
BBX 14 14 0 0
BITMAP
7C18
9E3C
BE7C
BF7C
FFF8
FFF0
FFE0
FFF0
FFF8
FFF8
FEFC
FE7C
FE3C
7C18
ENDCHAR
STARTCHAR 004C
ENCODING 76
SWIDTH 900 0
DWIDTH 15 0
BBX 13 14 0 0
BITMAP
7C00
9E00
BE00
BE00
FE00
FE00
FE00
FE00
FE00
FE00
FFF0
FFF8
FFF8
7FF0
ENDCHAR
STARTCHAR 004D
ENCODING 77
SWIDTH 1020 0
DWIDTH 17 0
BBX 15 14 0 0
BITMAP
7C1C
9E3E
BE3E
BE3E
FE3E
FF7E
FFFE
FFFE
FFFE
FFFE
FEBE
FE3E
FE3E
7C1C
ENDCHAR
STARTCHAR 004E
ENCODING 78
SWIDTH 960 0
DWIDTH 16 0
BBX 14 14 0 0
BITMAP
7C38
9E7C
BE7C
BE7C
FE7C
FF7C
FFFC
FFFC
FFFC
FEFC
FE7C
FE7C
FE7C
7C38
ENDCHAR
STARTCHAR 004F
ENCODING 79
SWIDTH 960 0
DWIDTH 16 0
BBX 14 14 0 0
BITMAP
3FF0
1FF8
BFFC
FE3C
FE3C
FE3C
FE3C
FE3C
FE3C
FE3C
FFFC
FFFC
7FF8
3FF0
ENDCHAR
STARTCHAR 0050
ENCODING 80
SWIDTH 960 0
DWIDTH 16 0
BBX 14 14 0 0
BITMAP
7FF0
9FF8
BFFC
BFFC
FE7C
FE7C
FE7C
FFFC
FFF8
FFF0
FE00
FE00
FE00
7C00
ENDCHAR
STARTCHAR 0051
ENCODING 81
SWIDTH 960 0
DWIDTH 16 0
BBX 14 16 0 -2
BITMAP
3FF0
1FF8
BFFC
FE3C
FE3C
FE3C
FE3C
FE3C
FE3C
FE3C
FFFC
FFFC
7FF8
3FF0
01F0
00F0
ENDCHAR
STARTCHAR 0052
ENCODING 82
SWIDTH 960 0
DWIDTH 16 0
BBX 14 14 0 0
BITMAP
BFF8
BFFC
BFFC
FE3C
FE3C
FE3C
FFF8
FFF0
FFF8
FFFC
FEFC
FE7C
FE3C
7C18
ENDCHAR
STARTCHAR 0053
ENCODING 83
SWIDTH 960 0
DWIDTH 16 0
BBX 14 14 0 0
BITMAP
3FF8
1FFC
BFFC
FFF8
FE00
FFF8
FFFC
7FFC
007C
7FFC
FFFC
FFFC
FFF8
7FF0
ENDCHAR
STARTCHAR 0054
ENCODING 84
SWIDTH 960 0
DWIDTH 16 0
BBX 14 14 0 0
BITMAP
7FF8
9FFC
BFFC
BFFC
0FC0
0FC0
0FC0
0FC0
0FC0
0FC0
0FC0
0FC0
0FC0
0780
ENDCHAR
STARTCHAR 0055
ENCODING 85
SWIDTH 960 0
DWIDTH 16 0
BBX 14 14 0 0
BITMAP
7C38
9E7C
BE7C
BE7C
FE7C
FE7C
FE7C
FE7C
FE7C
FE7C
FFFC
FFFC
7FF8
3FF0
ENDCHAR
STARTCHAR 0056
ENCODING 86
SWIDTH 960 0
DWIDTH 16 0
BBX 14 14 0 0
BITMAP
7C38
9E7C
BE7C
BE7C
FE7C
FE7C
FE7C
FEFC
FFF8
FFF0
FFE0
FFC0
7F80
3F00
ENDCHAR
STARTCHAR 0057
ENCODING 87
SWIDTH 1020 0
DWIDTH 17 0
BBX 15 14 0 0
BITMAP
7C1C
9E3E
BE3E
BE3E
FE3E
FE3E
FEBE
FFFE
FFFE
FFFE
FFFE
FF7E
FE3E
7C1C
ENDCHAR
STARTCHAR 0058
ENCODING 88
SWIDTH 960 0
DWIDTH 16 0
BBX 14 14 0 0
BITMAP
7038
987C
BCFC
BCF8
7FF8
3FF0
1FE0
1FE0
5FE8
7FF8
7FF8
7CF8
F87C
7038
ENDCHAR
STARTCHAR 0059
ENCODING 89
SWIDTH 960 0
DWIDTH 16 0
BBX 14 14 0 0
BITMAP
7878
9CFC
BFFC
FFFC
7FF8
7FF8
3FF0
0FC0
0FC0
0FC0
0FC0
0FC0
0FC0
0780
ENDCHAR
STARTCHAR 005A
ENCODING 90
SWIDTH 960 0
DWIDTH 16 0
BBX 14 14 0 0
BITMAP
7FF8
9FFC
BFFC
BFFC
03F8
07F0
0FE0
1FC0
3F80
7FF8
FFFC
FFFC
FFFC
7FF8
ENDCHAR
STARTCHAR 005B
ENCODING 91
SWIDTH 540 0
DWIDTH 9 0
BBX 7 14 0 0
BITMAP
3C
1E
BE
BE
FC
F8
F8
F8
F8
F8
FA
FE
7E
3C
ENDCHAR
STARTCHAR 005C
ENCODING 92
SWIDTH 960 0
DWIDTH 16 0
BBX 14 14 0 0
BITMAP
7000
9800
BC00
BC00
7F00
3F80
1FC0
0FE0
07F0
03F8
01FC
00FC
007C
0038
ENDCHAR
STARTCHAR 005D
ENCODING 93
SWIDTH 540 0
DWIDTH 9 0
BBX 7 14 0 0
BITMAP
78
9C
BE
BE
3E
3E
3E
3E
3E
3E
7E
FE
FC
78
ENDCHAR
STARTCHAR 005E
ENCODING 94
SWIDTH 600 0
DWIDTH 10 0
BBX 8 5 0 8
BITMAP
7E
9F
BF
BF
7E
ENDCHAR
STARTCHAR 005F
ENCODING 95
SWIDTH 960 0
DWIDTH 16 0
BBX 14 5 0 0
BITMAP
7FF8
9FFC
BFFC
BFFC
7FF8
ENDCHAR
STARTCHAR 0060
ENCODING 96
SWIDTH 600 0
DWIDTH 10 0
BBX 8 5 0 8
BITMAP
7E
9F
BF
BF
7E
ENDCHAR
STARTCHAR 0061
ENCODING 97
SWIDTH 840 0
DWIDTH 14 0
BBX 12 12 0 0
BITMAP
3FC0
1FE0
BFF0
FC70
FFF0
FFF0
FFF0
FC70
FC70
FC70
FC70
7820
ENDCHAR
STARTCHAR 0062
ENCODING 98
SWIDTH 840 0
DWIDTH 14 0
BBX 12 12 0 0
BITMAP
7FC0
9FE0
BFF0
BFF0
FC70
FFE0
FFF0
FC70
FFF0
FFF0
FFE0
7FC0
ENDCHAR
STARTCHAR 0063
ENCODING 99
SWIDTH 840 0
DWIDTH 14 0
BBX 12 12 0 0
BITMAP
3FE0
1FF0
BFE0
FC00
FC00
FC00
FC00
FC00
FFE0
FFF0
7FF0
3FE0
ENDCHAR
STARTCHAR 0064
ENCODING 100
SWIDTH 840 0
DWIDTH 14 0
BBX 12 12 0 0
BITMAP
7F80
9FC0
BFE0
BFE0
FC70
FC70
FC70
FCF0
FCF0
FFF0
FFE0
7FC0
ENDCHAR
STARTCHAR 0065
ENCODING 101
SWIDTH 840 0
DWIDTH 14 0
BBX 12 12 0 0
BITMAP
7FE0
9FF0
BFE0
FC00
FFE0
FFF0
FFE0
FC00
FFE0
FFF0
FFF0
7FE0
ENDCHAR
STARTCHAR 0066
ENCODING 102
SWIDTH 840 0
DWIDTH 14 0
BBX 12 12 0 0
BITMAP
7FE0
9FF0
BFE0
FC00
FFE0
FFF0
FFE0
FC00
FC00
FC00
FC00
7800
ENDCHAR
STARTCHAR 0067
ENCODING 103
SWIDTH 840 0
DWIDTH 14 0
BBX 12 12 0 0
BITMAP
3FE0
1FF0
BFE0
FC00
FCE0
FDE0
FCF0
FC70
FFF0
FFF0
7FE0
3FC0
ENDCHAR
STARTCHAR 0068
ENCODING 104
SWIDTH 840 0
DWIDTH 14 0
BBX 12 12 0 0
BITMAP
7860
9CF0
BCF0
BCF0
FFF0
FFF0
FFF0
FCF0
FCF0
FCF0
FCF0
7860
ENDCHAR
STARTCHAR 0069
ENCODING 105
SWIDTH 480 0
DWIDTH 8 0
BBX 6 12 0 0
BITMAP
78
9C
BC
BC
FC
FC
FC
FC
FC
FC
FC
78
ENDCHAR
STARTCHAR 006A
ENCODING 106
SWIDTH 840 0
DWIDTH 14 0
BBX 12 12 0 0
BITMAP
01E0
0270
02F0
02F0
03F0
63F0
F3F0
F3F0
FFF0
FFF0
7FE0
3FC0
ENDCHAR
STARTCHAR 006B
ENCODING 107
SWIDTH 840 0
DWIDTH 14 0
BBX 12 12 0 0
BITMAP
7860
9CF0
BDF0
BDF0
FFC0
FF80
FFC0
FFE0
FFE0
FDF0
FCF0
7860
ENDCHAR
STARTCHAR 006C
ENCODING 108
SWIDTH 780 0
DWIDTH 13 0
BBX 11 12 0 0
BITMAP
7800
9C00
BC00
BC00
FC00
FC00
FC00
FC00
FFC0
FFE0
FFE0
7FC0
ENDCHAR
STARTCHAR 006D
ENCODING 109
SWIDTH 900 0
DWIDTH 15 0
BBX 13 12 0 0
BITMAP
7830
9C78
BC78
BC78
FFF8
FFF8
FFF8
FD78
FC78
FC78
FC78
7830
ENDCHAR
STARTCHAR 006E
ENCODING 110
SWIDTH 840 0
DWIDTH 14 0
BBX 12 12 0 0
BITMAP
7860
9CF0
BCF0
BCF0
FFF0
FFF0
FDF0
FCF0
FCF0
FCF0
FCF0
7860
ENDCHAR
STARTCHAR 006F
ENCODING 111
SWIDTH 840 0
DWIDTH 14 0
BBX 12 12 0 0
BITMAP
3FC0
1FE0
BFF0
FC70
FC70
FC70
FC70
FC70
FFF0
FFF0
7FE0
3FC0
ENDCHAR
STARTCHAR 0070
ENCODING 112
SWIDTH 840 0
DWIDTH 14 0
BBX 12 12 0 0
BITMAP
7FC0
9FE0
BFF0
FCF0
FCF0
FCF0
FFE0
FFC0
FC00
FC00
FC00
7800
ENDCHAR
STARTCHAR 0071
ENCODING 113
SWIDTH 840 0
DWIDTH 14 0
BBX 12 14 0 -2
BITMAP
3FC0
1FE0
BFF0
FC70
FC70
FC70
FC70
FC70
FFF0
FFF0
7FE0
3FC0
03C0
01C0
ENDCHAR
STARTCHAR 0072
ENCODING 114
SWIDTH 840 0
DWIDTH 14 0
BBX 12 12 0 0
BITMAP
7FC0
9FE0
BFF0
FC70
FFF0
FFE0
FFC0
FFE0
FDF0
FCF0
FC70
7820
ENDCHAR
STARTCHAR 0073
ENCODING 115
SWIDTH 840 0
DWIDTH 14 0
BBX 12 12 0 0
BITMAP
3FE0
1FF0
BFE0
FC00
FFE0
7FF0
00F0
7FF0
FFF0
FFF0
FFE0
7FC0
ENDCHAR
STARTCHAR 0074
ENCODING 116
SWIDTH 840 0
DWIDTH 14 0
BBX 12 12 0 0
BITMAP
7FE0
9FF0
BFF0
BFF0
1F80
1F80
1F80
1F80
1F80
1F80
1F80
0F00
ENDCHAR
STARTCHAR 0075
ENCODING 117
SWIDTH 840 0
DWIDTH 14 0
BBX 12 12 0 0
BITMAP
7860
9CF0
BCF0
BCF0
FCF0
FCF0
FCF0
FCF0
FFF0
FFF0
7FE0
3FC0
ENDCHAR
STARTCHAR 0076
ENCODING 118
SWIDTH 840 0
DWIDTH 14 0
BBX 12 12 0 0
BITMAP
7860
9CF0
BCF0
BCF0
FCF0
FCF0
FDF0
FFE0
FFC0
FF80
7F00
3E00
ENDCHAR
STARTCHAR 0077
ENCODING 119
SWIDTH 900 0
DWIDTH 15 0
BBX 13 12 0 0
BITMAP
7830
9C78
BC78
BC78
FC78
FD78
FFF8
FFF8
FFF8
FEF8
FC78
7830
ENDCHAR
STARTCHAR 0078
ENCODING 120
SWIDTH 840 0
DWIDTH 14 0
BBX 12 12 0 0
BITMAP
60E0
91F0
BBF0
BBF0
7FC0
3F80
1FC0
3FE0
7FF0
7DF0
F8F0
7060
ENDCHAR
STARTCHAR 0079
ENCODING 121
SWIDTH 840 0
DWIDTH 14 0
BBX 12 12 0 0
BITMAP
70E0
99F0
BFF0
BFF0
3FC0
1F80
0F80
0F80
0F80
0F80
0F80
0700
ENDCHAR
STARTCHAR 007A
ENCODING 122
SWIDTH 840 0
DWIDTH 14 0
BBX 12 12 0 0
BITMAP
7FE0
9FF0
BFF0
BFF0
07C0
0F80
1F00
3FE0
3FE0
7FF0
FFF0
7FE0
ENDCHAR
STARTCHAR 007B
ENCODING 123
SWIDTH 660 0
DWIDTH 11 0
BBX 9 14 0 0
BITMAP
0F00
0780
2F80
3F00
3E00
7E00
FE00
FE00
7E00
3E00
3F00
3F80
1F80
0F00
ENDCHAR
STARTCHAR 007C
ENCODING 124
SWIDTH 540 0
DWIDTH 9 0
BBX 7 14 0 0
BITMAP
7C
9E
BE
BE
FE
FE
FE
FE
FE
FE
FE
FE
FE
7C
ENDCHAR
STARTCHAR 007D
ENCODING 125
SWIDTH 660 0
DWIDTH 11 0
BBX 9 14 0 0
BITMAP
7800
9C00
BE00
BE00
3E00
3F00
3F80
3F80
3F00
3E00
7E00
FE00
FC00
7800
ENDCHAR
STARTCHAR 007E
ENCODING 126
SWIDTH 600 0
DWIDTH 10 0
BBX 8 5 0 8
BITMAP
7E
9F
BF
BF
7E
ENDCHAR
STARTCHAR 00A0
ENCODING 160
SWIDTH 840 0
DWIDTH 14 0
BBX 0 0 0 0
BITMAP
ENDCHAR
STARTCHAR 2010
ENCODING 8208
SWIDTH 840 0
DWIDTH 14 0
BBX 12 5 0 4
BITMAP
7FE0
9FF0
BFF0
BFF0
7FE0
ENDCHAR
ENDFONT
